<svg xmlns="http://www.w3.org/2000/svg" version="1.1" xmlns:xlink="http://www.w3.org/1999/xlink" viewBox="0 0 200 200"><rect width="200" height="200" fill="url('#gradient')"></rect><defs><linearGradient id="gradient" gradientTransform="rotate(45 0.5 0.5)"><stop offset="0%" stop-color="#ceaa96"></stop><stop offset="100%" stop-color="#8fa983"></stop></linearGradient></defs><g><g fill="#445272" transform="matrix(1.7970166715413864,0,0,1.7970166715413864,8.071386292685752,113.30026681536853)" stroke="#c8512e" stroke-width="0.2"><path d="M8.87 0L6.36-5.02L4.50-5.02L4.50 0L1.07 0L1.07-14.22L6.67-14.22Q9.20-14.22 10.63-13.10Q12.05-11.97 12.05-9.92L12.05-9.92Q12.05-8.44 11.45-7.46Q10.85-6.48 9.57-5.88L9.57-5.88L12.54-0.15L12.54 0L8.87 0ZM4.50-11.57L4.50-7.67L6.67-7.67Q7.65-7.67 8.14-8.18Q8.63-8.69 8.63-9.61Q8.63-10.53 8.13-11.05Q7.64-11.57 6.67-11.57L6.67-11.57L4.50-11.57ZM23.21 0L19.92 0Q19.75-0.32 19.61-0.95L19.61-0.95Q18.70 0.20 17.07 0.20L17.07 0.20Q15.58 0.20 14.53-0.71Q13.49-1.61 13.49-2.98L13.49-2.98Q13.49-4.70 14.76-5.58Q16.03-6.46 18.45-6.46L18.45-6.46L19.46-6.46L19.46-7.01Q19.46-8.47 18.20-8.47L18.20-8.47Q17.03-8.47 17.03-7.31L17.03-7.31L13.74-7.31Q13.74-8.85 15.04-9.80Q16.35-10.76 18.37-10.76Q20.39-10.76 21.56-9.78Q22.73-8.79 22.76-7.07L22.76-7.07L22.76-2.39Q22.78-0.94 23.21-0.17L23.21-0.17L23.21 0ZM17.86-2.15L17.86-2.15Q18.48-2.15 18.88-2.41Q19.29-2.68 19.46-3.01L19.46-3.01L19.46-4.70L18.51-4.70Q16.79-4.70 16.79-3.15L16.79-3.15Q16.79-2.71 17.09-2.43Q17.39-2.15 17.86-2.15ZM33.17-8.79L28.47-2.54L33.28-2.54L33.28 0L24.31 0L24.31-1.84L28.99-8.03L24.51-8.03L24.51-10.57L33.17-10.57L33.17-8.79ZM44.12 0L40.83 0Q40.65-0.32 40.52-0.95L40.52-0.95Q39.61 0.20 37.98 0.20L37.98 0.20Q36.48 0.20 35.44-0.71Q34.39-1.61 34.39-2.98L34.39-2.98Q34.39-4.70 35.66-5.58Q36.93-6.46 39.36-6.46L39.36-6.46L40.37-6.46L40.37-7.01Q40.37-8.47 39.11-8.47L39.11-8.47Q37.94-8.47 37.94-7.31L37.94-7.31L34.65-7.31Q34.65-8.85 35.95-9.80Q37.26-10.76 39.28-10.76Q41.30-10.76 42.47-9.78Q43.64-8.79 43.67-7.07L43.67-7.07L43.67-2.39Q43.69-0.94 44.12-0.17L44.12-0.17L44.12 0ZM38.77-2.15L38.77-2.15Q39.38-2.15 39.79-2.41Q40.20-2.68 40.37-3.01L40.37-3.01L40.37-4.70L39.41-4.70Q37.70-4.70 37.70-3.15L37.70-3.15Q37.70-2.71 38.00-2.43Q38.30-2.15 38.77-2.15ZM59.66-14.22L61.64-5.30L63.27-14.22L66.67-14.22L63.65 0L60.10 0L58.19-8.11L56.33 0L52.78 0L49.76-14.22L53.16-14.22L54.79-5.30L56.75-14.22L59.66-14.22ZM67.15-4.82L67.14-5.38Q67.14-6.96 67.75-8.20Q68.37-9.43 69.52-10.10Q70.67-10.76 72.23-10.76L72.23-10.76Q74.60-10.76 75.97-9.29Q77.33-7.82 77.33-5.29L77.33-5.29L77.33-5.18Q77.33-2.71 75.96-1.25Q74.59 0.20 72.25 0.20L72.25 0.20Q69.99 0.20 68.62-1.16Q67.26-2.51 67.15-4.82L67.15-4.82ZM70.44-5.77L70.43-5.18Q70.43-3.71 70.89-3.03Q71.35-2.34 72.25-2.34L72.25-2.34Q74.00-2.34 74.04-5.05L74.04-5.05L74.04-5.38Q74.04-8.22 72.23-8.22L72.23-8.22Q70.58-8.22 70.44-5.77L70.44-5.77ZM85.23-10.64L85.18-7.59L84.09-7.67Q82.54-7.67 82.10-6.69L82.10-6.69L82.10 0L78.81 0L78.81-10.57L81.89-10.57L82.00-9.21Q82.83-10.76 84.32-10.76L84.32-10.76Q84.84-10.76 85.23-10.64L85.23-10.64ZM89.83-15L89.83 0L86.53 0L86.53-15L89.83-15ZM91.45-5.36L91.45-5.36Q91.45-7.87 92.53-9.32Q93.61-10.76 95.56-10.76L95.56-10.76Q96.97-10.76 97.94-9.65L97.94-9.65L97.94-15L101.24-15L101.24 0L98.28 0L98.12-1.13Q97.10 0.20 95.54 0.20L95.54 0.20Q93.65 0.20 92.55-1.25Q91.45-2.70 91.45-5.36ZM94.75-5.76L94.74-5.16Q94.74-2.34 96.38-2.34L96.38-2.34Q97.47-2.34 97.94-3.26L97.94-3.26L97.94-7.29Q97.49-8.22 96.40-8.22L96.40-8.22Q94.87-8.22 94.75-5.76L94.75-5.76Z"></path></g></g></svg>